<?xml version="1.0" encoding="UTF-8"?>
<svg version="1.1" xmlns="http://www.w3.org/2000/svg" width="1500" height="1500">
<path d="M0 0 C25.0385807 -0.73778507 48.05729682 10.04388761 66.40234375 26.37890625 C71.90401758 31.64506322 77.04943696 37.51259656 80.87109375 44.125 C80.87109375 45.445 80.87109375 46.765 80.87109375 48.125 C79.90171875 48.6096875 78.93234375 49.094375 77.93359375 49.59375 C77.29341309 49.91400146 76.65323242 50.23425293 75.99365234 50.56420898 C74.56480936 51.27830178 73.13543671 51.99133564 71.70556641 52.70336914 C67.94311157 54.57883728 64.19079304 56.47030997 60.45703125 58.40234375 C59.750625 58.76457031 59.04421875 59.12679687 58.31640625 59.5 C56.96668105 60.19268916 55.62013737 60.89162389 54.27734375 61.59765625 C50.50093711 63.52503391 47.15308304 65.17822915 42.87109375 65.125 C40.51953125 63.0625 40.51953125 63.0625 38.24609375 60.125 C31.39040084 51.85352925 22.67225161 46.35841118 11.87109375 45.125 C10.88496094 44.99351562 9.89882813 44.86203125 8.8828125 44.7265625 C-6.13624872 43.10774153 -18.58589948 45.87626251 -30.578125 54.94921875 C-34.12560176 57.97516753 -36.71890327 61.15006003 -39.12890625 65.125 C-39.5053125 65.73859375 -39.88171875 66.3521875 -40.26953125 66.984375 C-47.31953616 79.71647341 -48.01530717 95.6522207 -45.00390625 109.6875 C-43.36664064 115.25266573 -40.70504666 119.59812958 -37.12890625 124.125 C-36.64164063 124.76308594 -36.154375 125.40117188 -35.65234375 126.05859375 C-27.51167281 136.18001618 -15.77144156 140.42516332 -3.12890625 142.125 C9.91820176 143.38840711 23.1504412 138.81565339 33.58984375 131.12109375 C39.07336944 126.32300877 38.03450251 124.49091243 38.87109375 116.125 C23.03109375 116.125 7.19109375 116.125 -9.12890625 116.125 C-9.14953125 110.205625 -9.17015625 104.28625 -9.19140625 98.1875 C-9.20051025 96.31715088 -9.20961426 94.44680176 -9.21899414 92.51977539 C-9.22191334 91.04573641 -9.22446189 89.57169663 -9.2265625 88.09765625 C-9.23167847 87.32546753 -9.23679443 86.55327881 -9.24206543 85.75769043 C-9.24237599 83.87974813 -9.19124194 82.00190747 -9.12890625 80.125 C-7.30893719 78.30503094 -4.79000981 78.99859409 -2.36753845 78.98947144 C-1.54048904 78.99149567 -0.71343964 78.9935199 0.13867188 78.99560547 C1.00527939 78.99385315 1.8718869 78.99210083 2.76475525 78.99029541 C5.64397148 78.98587575 8.52312684 78.98881528 11.40234375 78.9921875 C13.39392102 78.99151449 15.38549821 78.9905445 17.3770752 78.98928833 C21.5568927 78.9878112 25.73668888 78.98996639 29.91650391 78.99462891 C35.28711901 79.0003262 40.65768415 78.99704727 46.02829742 78.99105644 C50.14252095 78.98745123 54.25673254 78.98858923 58.37095642 78.99118423 C60.35180161 78.99185361 62.33264787 78.9910247 64.31349182 78.98870468 C67.07686251 78.98617881 69.84015109 78.99001782 72.60351562 78.99560547 C73.43056503 78.99358124 74.25761444 78.99155701 75.10972595 78.98947144 C80.75683131 79.01073756 80.75683131 79.01073756 81.87109375 80.125 C82.01739026 81.95702135 82.09405658 83.79464271 82.14331055 85.63183594 C82.19161263 87.40068146 82.19161263 87.40068146 82.2408905 89.20526123 C82.33709988 93.93458538 82.41792306 98.66380161 82.47134686 103.39381027 C82.51208958 106.97632228 82.57184399 110.55605372 82.68041992 114.13720703 C83.49606109 141.70804877 83.49606109 141.70804877 77.171875 149.2109375 C74.5715332 151.80615234 74.5715332 151.80615234 71.87109375 154.125 C70.89023192 155.13841297 69.9217874 156.16397927 68.96557617 157.20068359 C52.63626162 174.81919499 30.32205537 184.24634111 6.50390625 185.4609375 C-17.57636508 186.16700156 -39.42458645 179.63231426 -58.12890625 164.125 C-59.16015625 163.320625 -60.19140625 162.51625 -61.25390625 161.6875 C-77.40832382 147.28899738 -88.55814729 126.27063104 -90.4309082 104.63623047 C-90.56496552 101.0432953 -90.59711035 97.47025781 -90.56640625 93.875 C-90.55287109 91.96702637 -90.55287109 91.96702637 -90.5390625 90.02050781 C-90.13796147 68.15493084 -83.05736508 50.00142391 -69.12890625 33.125 C-68.34515625 32.073125 -67.56140625 31.02125 -66.75390625 29.9375 C-49.40814892 11.35276 -25.07336453 1.47219755 0 0 Z " fill="#F8F8F8" transform="translate(950.12890625,649.875)"/>
<path d="M0 0 C0.83597214 -0.0049649 1.67194427 -0.00992981 2.5332489 -0.01504517 C5.31750297 -0.02972427 8.1016998 -0.03648322 10.88598633 -0.04199219 C12.82400005 -0.04774509 14.76201377 -0.05350281 16.70002747 -0.05926514 C20.77821112 -0.06979561 24.85637497 -0.07562283 28.93457031 -0.07910156 C34.12688526 -0.08454815 39.31893287 -0.1084843 44.51116467 -0.13707352 C48.52383646 -0.15583894 52.53644616 -0.16091314 56.5491581 -0.16243744 C58.46066032 -0.16544035 60.37216207 -0.17338771 62.28362083 -0.18662262 C73.3085375 -0.25742069 83.33710174 0.20293983 94.03051758 3.16113281 C95.01880051 3.43044617 96.00708344 3.69975952 97.02531433 3.97723389 C109.01382088 7.46214143 120.53056853 17.34377946 126.71020508 28.07910156 C134.96850542 43.98324456 136.34620005 61.63720143 131.21801758 78.89550781 C125.59857497 93.97434547 115.28569537 103.63185106 101.19067383 110.72753906 C98.03051758 112.16113281 98.03051758 112.16113281 96.03051758 112.16113281 C98.06990659 115.78741857 100.11245424 119.41191611 102.15551758 123.03613281 C103.01016602 124.5559375 103.01016602 124.5559375 103.88208008 126.10644531 C107.50005571 132.52012938 111.21306762 138.86439278 115.03051758 145.16113281 C115.77734645 146.40418103 116.52350452 147.64763266 117.26879883 148.89160156 C117.60983643 149.45967529 117.95087402 150.02774902 118.30224609 150.61303711 C119.02652741 151.82085224 119.74958083 153.0294042 120.47167969 154.23852539 C122.4906831 157.61534551 124.53073584 160.97643472 126.60864258 164.31738281 C127.02460693 164.99260986 127.44057129 165.66783691 127.86914062 166.36352539 C128.6681302 167.65947277 129.47399903 168.95121108 130.28759766 170.23803711 C132.34697304 173.59656625 133.03051758 175.10407152 133.03051758 179.16113281 C117.52051758 179.16113281 102.01051758 179.16113281 86.03051758 179.16113281 C83.06051758 173.88113281 80.09051758 168.60113281 77.03051758 163.16113281 C75.64864258 160.74800781 74.26676758 158.33488281 72.84301758 155.84863281 C69.49266665 149.99377892 66.22854398 144.10032471 63.03051758 138.16113281 C62.31445436 136.84598366 61.59830261 135.53088271 60.88208008 134.21582031 C60.13958124 132.84359289 59.39739177 131.47119803 58.65551758 130.09863281 C58.2971582 129.44258057 57.93879883 128.78652832 57.56958008 128.1105957 C55.03051758 123.38890648 55.03051758 123.38890648 55.03051758 121.16113281 C48.10051758 121.16113281 41.17051758 121.16113281 34.03051758 121.16113281 C34.03051758 140.30113281 34.03051758 159.44113281 34.03051758 179.16113281 C20.17051758 179.16113281 6.31051758 179.16113281 -7.96948242 179.16113281 C-8.83223768 174.84735655 -9.09517162 171.35862658 -9.09646606 166.99884033 C-9.09802606 166.28881922 -9.09958605 165.5787981 -9.10119331 164.84726119 C-9.10517371 162.47432473 -9.1020252 160.10145253 -9.09887695 157.72851562 C-9.10023226 156.02498843 -9.10201292 154.32146153 -9.10418701 152.61793518 C-9.10874458 147.99640337 -9.10697902 143.3748939 -9.10380793 138.7533617 C-9.10127734 133.92116549 -9.10362367 129.08897119 -9.10519409 124.2567749 C-9.10701304 116.14627743 -9.10461594 108.03578906 -9.09985352 99.92529297 C-9.09440409 90.53611373 -9.09617959 81.14695617 -9.10167992 71.75777745 C-9.10621012 63.70337336 -9.10686228 55.64897582 -9.10424125 47.59457088 C-9.10267891 42.78068737 -9.1024837 37.96681407 -9.10577774 33.15293121 C-9.10865535 28.63201818 -9.10668281 24.11113329 -9.10088348 19.59022331 C-9.09955561 17.92648045 -9.09995047 16.26273524 -9.10214615 14.5989933 C-9.1048564 12.33779324 -9.10147819 10.07668485 -9.09646606 7.81549072 C-9.09608904 6.54714512 -9.09571201 5.27879951 -9.09532356 3.9720192 C-8.84450797 -1.63039449 -4.53002365 0.00635154 0 0 Z M34.03051758 39.16113281 C34.03051758 52.36113281 34.03051758 65.56113281 34.03051758 79.16113281 C40.11489258 79.22300781 46.19926758 79.28488281 52.46801758 79.34863281 C55.32091431 79.38960083 55.32091431 79.38960083 58.23144531 79.43139648 C59.76732756 79.44017205 61.30321688 79.44781344 62.83911133 79.45410156 C63.61355591 79.46944946 64.38800049 79.48479736 65.18591309 79.50061035 C72.07910852 79.50385421 78.75359591 78.11893117 84.40551758 73.97363281 C88.80999605 69.25454874 90.16007956 64.62079675 90.46801758 58.22363281 C90.25707489 52.95006551 89.19719553 48.45392886 86.03051758 44.16113281 C77.22683144 37.04000445 66.82699749 38.00267625 56.09301758 38.03613281 C54.23773437 38.03033203 54.23773437 38.03033203 52.3449707 38.02441406 C50.53609375 38.02634766 50.53609375 38.02634766 48.69067383 38.02832031 C47.60407471 38.02944824 46.51747559 38.03057617 45.39794922 38.03173828 C41.59295771 38.17794618 37.80891279 38.68883341 34.03051758 39.16113281 Z " fill="#F8F8F7" transform="translate(698.969482421875,652.8388671875)"/>
<path d="M0 0 C2.46933673 2.1737646 4.84231711 4.41651011 7.203125 6.70703125 C7.88761719 7.31804688 8.57210938 7.9290625 9.27734375 8.55859375 C25.99111805 23.99174487 33.63617135 47.49258323 35.44140625 69.62890625 C36.06146643 93.25646242 27.36441256 117.05680883 11.453125 134.51953125 C-6.61185694 153.52153532 -30.18221648 164.32651737 -56.546875 165.01953125 C-80.98760526 164.58502938 -103.84927739 155.29226285 -121.375 138.19140625 C-123.61828273 135.7649984 -125.72984553 133.28469053 -127.796875 130.70703125 C-128.68246094 129.62615234 -128.68246094 129.62615234 -129.5859375 128.5234375 C-138.53564408 116.73352724 -144.80533077 102.35511824 -146.796875 87.70703125 C-146.92449219 86.80597656 -147.05210938 85.90492188 -147.18359375 84.9765625 C-149.22168065 67.90427614 -147.30508498 49.25137222 -139.796875 33.70703125 C-139.51714844 33.11229004 -139.23742188 32.51754883 -138.94921875 31.90478516 C-129.14852377 11.30105139 -112.48799732 -5.3487679 -90.796875 -13.29296875 C-89.67796875 -13.71320312 -88.5590625 -14.1334375 -87.40625 -14.56640625 C-57.31103417 -25.46681863 -24.80212107 -20.3335825 0 0 Z M-93.671875 38.95703125 C-102.41118796 50.44298542 -107.00003306 64.27529884 -105.359375 78.76953125 C-103.36593735 92.55803243 -97.37835703 103.6399284 -86.60546875 112.51171875 C-75.19113081 120.72024085 -62.50535977 122.48431647 -48.796875 121.70703125 C-45.25775267 121.09132093 -42.10977479 120.08230226 -38.796875 118.70703125 C-37.97832031 118.37832031 -37.15976563 118.04960938 -36.31640625 117.7109375 C-22.48773571 111.51483551 -14.9340463 100.75339681 -9.55859375 87.03125 C-5.31397251 74.07971339 -7.40088762 60.10288118 -13.421875 48.14453125 C-19.98332425 36.80375477 -29.01702096 28.11198665 -41.65625 24.25 C-60.78535385 19.39790979 -80.49395034 23.71326031 -93.671875 38.95703125 Z " fill="#F9F9F9" transform="translate(1205.796875,670.29296875)"/>
<path d="M0 0 C1.16781006 0.00523682 2.33562012 0.01047363 3.53881836 0.01586914 C4.79887695 0.0190918 6.05893555 0.02231445 7.35717773 0.02563477 C8.6976732 0.03399136 10.03816799 0.04245632 11.37866211 0.05102539 C12.72306153 0.05603879 14.06746271 0.06060197 15.41186523 0.06469727 C18.71331644 0.07653042 22.01474471 0.09446653 25.31616211 0.11352539 C25.81116211 9.51852539 25.81116211 9.51852539 26.31616211 19.11352539 C28.29616211 19.60852539 28.29616211 19.60852539 30.31616211 20.11352539 C30.31092529 19.5431958 30.30568848 18.97286621 30.30029297 18.38525391 C30.2795799 15.81552216 30.26652021 13.24580793 30.25366211 10.67602539 C30.2452832 9.77819336 30.2369043 8.88036133 30.22827148 7.95532227 C30.22504883 7.10131836 30.22182617 6.24731445 30.21850586 5.36743164 C30.21326904 4.57667236 30.20803223 3.78591309 30.20263672 2.97119141 C30.31616211 1.11352539 30.31616211 1.11352539 31.31616211 0.11352539 C33.53471475 0.02568997 35.75604707 0.0065793 37.97631836 0.01586914 C38.97301796 0.01799156 38.97301796 0.01799156 39.98985291 0.02015686 C42.1195011 0.02577021 44.2490455 0.03832485 46.37866211 0.05102539 C47.8194158 0.05603868 49.26017114 0.06060188 50.70092773 0.06469727 C54.239376 0.07489452 57.77775441 0.09385401 61.31616211 0.11352539 C64.28382224 10.20789811 66.93067593 20.35238043 69.43334961 30.57055664 C69.81661718 32.12738536 70.20009582 33.68416213 70.58377075 35.2408905 C71.3836745 38.48865951 72.1819142 41.73683089 72.97875977 44.98535156 C73.98044174 49.06889926 74.98495402 53.15174331 75.99055958 57.23432636 C80.0475982 73.70634797 84.0715449 90.18550883 88.01538086 106.68505859 C89.58473119 113.2468432 91.18716255 119.80040285 92.79125977 126.35375977 C94.47821284 133.24652225 96.14703115 140.14367532 97.81439209 147.04119873 C98.28209065 148.97280916 98.7523934 150.90378853 99.22290039 152.8347168 C99.97318214 155.92519511 100.7100679 159.01846196 101.44116211 162.11352539 C101.65329346 162.9780835 101.8654248 163.8426416 102.08398438 164.73339844 C102.26630615 165.51884033 102.44862793 166.30428223 102.63647461 167.11352539 C102.79390137 167.77352539 102.95132813 168.43352539 103.11352539 169.11352539 C103.31616211 171.11352539 103.31616211 171.11352539 102.31616211 176.11352539 C78.88616211 176.11352539 55.45616211 176.11352539 31.31616211 176.11352539 C31.31616211 160.60352539 31.31616211 145.09352539 31.31616211 129.11352539 C29.33616211 129.11352539 27.35616211 129.11352539 25.31616211 129.11352539 C25.31616211 144.62352539 25.31616211 160.13352539 25.31616211 176.11352539 C2.21616211 176.11352539 -20.88383789 176.11352539 -44.68383789 176.11352539 C-45.88003795 172.52492521 -45.39803239 171.13026447 -44.47143555 167.50097656 C-44.17975494 166.34115265 -43.88807434 165.18132874 -43.58755493 163.98635864 C-43.09767593 162.09057571 -43.09767593 162.09057571 -42.59790039 160.15649414 C-42.26145222 158.82961579 -41.92580482 157.50253417 -41.59091187 156.17526245 C-40.8768534 153.35096157 -40.15800892 150.52794137 -39.43530273 147.70584106 C-37.74145633 141.08983966 -36.07257217 134.46752526 -34.40157318 127.84572411 C-33.84813598 125.65352107 -33.29376638 123.46155524 -32.73931885 121.26960754 C-29.95740819 110.26086422 -27.2691324 99.2326119 -24.68383789 88.17602539 C-24.33440417 86.68481143 -23.9849577 85.19360046 -23.63549805 83.70239258 C-23.13388903 81.56076643 -22.6324981 79.41909079 -22.13192749 77.27722168 C-19.57562342 66.35331997 -16.90647108 55.45637828 -14.24961853 44.55659485 C-13.10859525 39.87136629 -11.97752575 35.18380433 -10.85073853 30.49513245 C-10.02059326 27.04219572 -9.18768971 23.58992714 -8.35449219 20.13772583 C-7.95091188 18.46262858 -7.54855648 16.78723571 -7.14746094 15.11154175 C-6.59121724 12.78849026 -6.03060871 10.46653331 -5.46899414 8.14477539 C-5.30271011 7.44546402 -5.13642609 6.74615265 -4.96510315 6.02565002 C-3.53552518 0.14955146 -3.53552518 0.14955146 0 0 Z M25.31616211 36.11352539 C25.31616211 39.74352539 25.31616211 43.37352539 25.31616211 47.11352539 C27.79116211 47.60852539 27.79116211 47.60852539 30.31616211 48.11352539 C30.51189819 46.67712368 30.69744027 45.23933035 30.87866211 43.80102539 C31.0352832 42.60026367 31.0352832 42.60026367 31.19506836 41.37524414 C31.46371389 38.94535423 31.46371389 38.94535423 30.31616211 36.11352539 C28.66616211 36.11352539 27.01616211 36.11352539 25.31616211 36.11352539 Z M26.31616211 73.11352539 C25.05435116 74.15145312 25.05435116 74.15145312 25.20263672 76.43017578 C25.20787354 77.43040771 25.21311035 78.43063965 25.21850586 79.46118164 C25.22172852 80.54077148 25.22495117 81.62036133 25.22827148 82.73266602 C25.23665039 83.86897461 25.2450293 85.0052832 25.25366211 86.17602539 C25.25817383 87.31620117 25.26268555 88.45637695 25.26733398 89.63110352 C25.27916463 92.4586289 25.29564801 95.28605179 25.31616211 98.11352539 C26.96616211 98.44352539 28.61616211 98.77352539 30.31616211 99.11352539 C30.31616211 90.86352539 30.31616211 82.61352539 30.31616211 74.11352539 C28.99616211 73.78352539 27.67616211 73.45352539 26.31616211 73.11352539 Z " fill="#E0E2E2" transform="translate(492.683837890625,655.886474609375)"/>
<path d="M0 0 C1.03487045 -0.00281982 2.06974091 -0.00563965 3.13597107 -0.00854492 C4.85343285 -0.00550858 4.85343285 -0.00550858 6.60559082 -0.00241089 C8.40293419 -0.00503937 8.40293419 -0.00503937 10.23658752 -0.00772095 C13.53196686 -0.0113791 16.82728378 -0.01050606 20.12265968 -0.00734186 C23.56419588 -0.00481785 27.00572933 -0.00715591 30.44726562 -0.00872803 C36.22774741 -0.0105496 42.00821644 -0.00814373 47.78869629 -0.00338745 C54.48075429 0.00205515 61.17278182 0.00029248 67.86483908 -0.00521386 C73.60071115 -0.00974533 79.33657402 -0.01039537 85.0724473 -0.00777519 C88.50252183 -0.0062126 91.93258202 -0.00601814 95.36265564 -0.00931168 C99.18453159 -0.01272479 103.00637315 -0.00800009 106.82824707 -0.00241089 C108.54570885 -0.00544724 108.54570885 -0.00544724 110.29786682 -0.00854492 C111.33273727 -0.0057251 112.36760773 -0.00290527 113.43383789 0 C114.79107342 0.00056554 114.79107342 0.00056554 116.17572784 0.0011425 C118.21691895 0.12698364 118.21691895 0.12698364 119.21691895 1.12698364 C119.3055054 3.86592449 119.33215373 6.57951634 119.3145752 9.31838989 C119.31316025 10.13822861 119.3117453 10.95806732 119.31028748 11.80274963 C119.30467184 14.43169747 119.29211674 17.06056138 119.27941895 19.68948364 C119.27440596 21.46747721 119.2698427 23.2454721 119.26574707 25.02346802 C119.25469733 29.39133909 119.23742226 33.75914712 119.21691895 38.12698364 C116.16672916 39.65207853 112.99142282 39.25674308 109.64611816 39.24050903 C108.47525162 39.24072807 108.47525162 39.24072807 107.2807312 39.24095154 C104.69432825 39.24025351 102.10799685 39.23246621 99.52160645 39.22463989 C97.73084553 39.22277532 95.94008411 39.2213516 94.14932251 39.22035217 C89.43107704 39.21653005 84.71286224 39.20670235 79.99462891 39.19564819 C75.18201106 39.18542753 70.36938826 39.18085315 65.5567627 39.17581177 C56.11013245 39.16507983 46.66353305 39.14748548 37.21691895 39.12698364 C37.21691895 50.01698364 37.21691895 60.90698364 37.21691895 72.12698364 C39.63511963 72.12174683 42.05332031 72.11651001 44.5447998 72.1111145 C52.51560244 72.09457859 60.48640581 72.08351241 68.45722103 72.07517147 C73.29208721 72.06994268 78.12693589 72.0628451 82.96179199 72.05154419 C87.62369014 72.04071517 92.2855714 72.03470678 96.94748116 72.0321064 C98.73016183 72.03025218 100.51284153 72.02663161 102.29551506 72.02125359 C104.78357855 72.01404296 107.27157138 72.01299271 109.75964355 72.01345825 C110.50410736 72.00986298 111.24857117 72.0062677 112.01559448 72.00256348 C117.10286678 72.01293148 117.10286678 72.01293148 118.21691895 73.12698364 C118.21691895 85.66698364 118.21691895 98.20698364 118.21691895 111.12698364 C91.48691895 111.12698364 64.75691895 111.12698364 37.21691895 111.12698364 C37.21691895 133.56698364 37.21691895 156.00698364 37.21691895 179.12698364 C23.02691895 179.12698364 8.83691895 179.12698364 -5.78308105 179.12698364 C-5.80562593 155.93593607 -5.82405897 132.74489732 -5.83489323 109.55384159 C-5.84005673 98.78663301 -5.84710045 88.0194317 -5.85852051 77.25222778 C-5.8684657 67.87113119 -5.87493409 58.49003987 -5.87716955 49.10893816 C-5.87847694 44.13848147 -5.88156456 39.16803984 -5.88881111 34.19758797 C-5.89556873 29.52490242 -5.89769855 24.85223823 -5.89618874 20.17954826 C-5.89646518 18.45936848 -5.89847183 16.73918803 -5.90228653 15.01901245 C-5.90721975 12.68091703 -5.90608073 10.34290361 -5.90333557 8.00480652 C-5.90425736 6.6930951 -5.90517916 5.38138369 -5.90612888 4.02992344 C-5.7072483 -0.66205993 -4.24544463 0.00176901 0 0 Z " fill="#FAFAFA" transform="translate(329.7830810546875,652.8730163574219)"/>
<path d="M0 0 C1.41321533 0.00181274 1.41321533 0.00181274 2.85498047 0.00366211 C4.3614917 0.0231189 4.3614917 0.0231189 5.8984375 0.04296875 C6.92211426 0.05013916 7.94579102 0.05730957 9.00048828 0.06469727 C15.38993845 0.13192842 21.76844242 0.31290451 28.1484375 0.66796875 C28.86080566 0.70704346 29.57317383 0.74611816 30.30712891 0.78637695 C35.14473701 1.10176826 35.14473701 1.10176826 36.2734375 2.23046875 C36.37271314 4.4937433 36.39976192 6.76018406 36.40042114 9.02563477 C36.40198113 9.74448884 36.40354112 10.46334291 36.40514839 11.20398045 C36.40916088 13.63079903 36.40596779 16.05755587 36.40283203 18.484375 C36.40418596 20.21686846 36.40596585 21.94936163 36.40814209 23.68185425 C36.4127174 28.40072708 36.41092646 33.11957815 36.407763 37.83845139 C36.40523991 42.7654298 36.4075768 47.69240628 36.40914917 52.61938477 C36.41097101 60.89502295 36.40856417 69.17065223 36.40380859 77.44628906 C36.39836595 87.02851736 36.40012859 96.61072438 36.405635 106.19295216 C36.41016571 114.40438679 36.41081688 122.615815 36.40819633 130.82725048 C36.40663332 135.73844438 36.40644043 140.64962827 36.40973282 145.56082153 C36.41261093 150.17689134 36.41063696 154.79293358 36.40483856 159.4090004 C36.40351064 161.10821614 36.40390562 162.80743418 36.40610123 164.50664902 C36.40881148 166.81623211 36.40543317 169.12572545 36.40042114 171.43530273 C36.40004412 172.73096664 36.39966709 174.02663055 36.39927864 175.36155701 C36.2734375 178.23046875 36.2734375 178.23046875 35.2734375 179.23046875 C32.18262285 179.33163795 29.11461195 179.37015433 26.0234375 179.36328125 C25.09499023 179.36423798 24.16654297 179.3651947 23.20996094 179.36618042 C21.24283785 179.3668623 19.27571254 179.36500747 17.30859375 179.36083984 C14.28640724 179.3554917 11.26436935 179.36078457 8.2421875 179.3671875 C6.33593717 179.36652672 4.42968693 179.36524556 2.5234375 179.36328125 C1.15783691 179.3663176 1.15783691 179.3663176 -0.23535156 179.36941528 C-6.61161281 179.34541844 -6.61161281 179.34541844 -7.7265625 178.23046875 C-7.83023852 175.96954807 -7.86180298 173.70532238 -7.86700439 171.44203186 C-7.86997552 170.72388335 -7.87294664 170.00573484 -7.8760078 169.26582426 C-7.88473146 166.84134849 -7.88620611 164.41692189 -7.88769531 161.99243164 C-7.89232085 160.26155999 -7.89734515 158.53068937 -7.90274048 156.79981995 C-7.91589088 152.0850196 -7.92231442 147.37023351 -7.92675114 142.65541768 C-7.92967726 139.7134216 -7.93378114 136.77142946 -7.93825531 133.82943535 C-7.95193641 124.63505733 -7.9616004 115.44068826 -7.9654572 106.24630076 C-7.9699414 95.61308946 -7.98750347 84.9800065 -8.0164578 74.34683424 C-8.03803249 66.14047862 -8.0481592 57.93415921 -8.04949832 49.72777551 C-8.05054927 44.8204156 -8.05651832 39.91317622 -8.07431793 35.00584602 C-8.09072629 30.39218115 -8.09298961 25.77872833 -8.08417892 21.16504478 C-8.08340468 19.46785542 -8.08780184 17.770655 -8.09763718 16.07349396 C-8.11024027 13.76403534 -8.10454446 11.45534114 -8.09405518 9.14588928 C-8.09552174 7.85114717 -8.0969883 6.55640505 -8.0984993 5.22242832 C-7.97576015 4.23508166 -7.85302101 3.247735 -7.7265625 2.23046875 C-4.51366876 0.08853959 -3.69131927 -0.01806345 0 0 Z " fill="#F3F3F3" transform="translate(629.7265625,652.76953125)"/>
<path d="M0 0 C1.04929687 -0.01417969 2.09859375 -0.02835938 3.1796875 -0.04296875 C6.06047071 0.18245063 7.68740208 0.69785683 10.125 2.1875 C10.785 1.5275 11.445 0.8675 12.125 0.1875 C15.75 0.0625 15.75 0.0625 19.125 0.1875 C19.19962728 4.47416736 19.25382508 8.76048207 19.28979492 13.04760742 C19.30480313 14.50340368 19.32521633 15.95915532 19.35131836 17.41479492 C19.38805676 19.51752789 19.4048056 21.61965885 19.41796875 23.72265625 C19.4336792 24.984729 19.44938965 26.24680176 19.46557617 27.54711914 C18.97638573 32.77602146 17.60623292 36.70626708 13.8125 40.5 C7.23998187 44.62692999 0.72586172 44.87376111 -6.875 44.1875 C-10.5625 42.875 -10.5625 42.875 -12.875 41.1875 C-13.875 38.1875 -13.875 38.1875 -12.9375 36 C-12.586875 35.401875 -12.23625 34.80375 -11.875 34.1875 C-9.2154953 34.64341509 -6.9998121 35.1267806 -4.5625 36.3125 C0.10625951 37.83256124 4.51075412 36.72558196 9.125 35.1875 C9.455 33.5375 9.785 31.8875 10.125 30.1875 C9.50625 30.6825 8.8875 31.1775 8.25 31.6875 C2.84222031 34.28323425 -2.56753666 33.97116679 -8.1875 32.0625 C-12.31343192 29.18394284 -15.25287651 26.05387047 -16.875 21.1875 C-17.39666057 16.21889685 -17.4474051 12.33231021 -15.1875 7.8125 C-10.43964202 2.42303959 -7.14159204 0.04365276 0 0 Z M-8.6875 11 C-10.33790867 14.0402265 -10.42228027 15.76699832 -9.875 19.1875 C-8.04399068 22.1103334 -6.00852292 24.62073854 -2.875 26.1875 C2.93845947 26.72115513 2.93845947 26.72115513 8.0625 24.3125 C11.19593316 21.08411432 11.51718693 18.73820291 11.484375 14.2265625 C10.8817698 10.80743302 8.75713933 9.25560948 6.125 7.1875 C0.35514465 4.30257233 -4.47599645 6.78849645 -8.6875 11 Z " fill="#F6F6F6" transform="translate(971.875,874.8125)"/>
<path d="M0 0 C2.97 6.6 5.94 13.2 9 20 C10.27875 17.4425 11.5575 14.885 12.875 12.25 C14.91666667 8.16666667 16.95833333 4.08333333 19 0 C21.64 0 24.28 0 27 0 C26.35773167 4.79653941 24.40449336 8.68147996 22.2890625 12.96875 C21.9202597 13.72667847 21.55145691 14.48460693 21.17147827 15.26550293 C20.39242757 16.86371387 19.61059803 18.46057288 18.82617188 20.05615234 C17.63047379 22.48886328 16.44342526 24.92564175 15.2578125 27.36328125 C14.49790058 28.9195174 13.73750003 30.47551507 12.9765625 32.03125 C12.62332916 32.75534058 12.27009583 33.47943115 11.90615845 34.22546387 C7.9144338 42.33229353 7.9144338 42.33229353 6 45 C2.8125 45.3125 2.8125 45.3125 0 45 C-0.65625 43.2734375 -0.65625 43.2734375 -1 41 C0.13042084 38.64495658 1.52441215 36.58825193 2.96875 34.4140625 C4.57214264 30.6606661 3.69131073 27.88395744 2.31591797 24.13574219 C1.48301858 22.08965177 0.59615943 20.07602833 -0.3125 18.0625 C-0.60833984 17.38509766 -0.90417969 16.70769531 -1.20898438 16.00976562 C-3.21187079 11.49786383 -5.48975217 7.25024301 -8 3 C-8.99 4.485 -8.99 4.485 -10 6 C-11.83984375 6.625 -11.83984375 6.625 -13.9375 7 C-17.12175303 7.69799749 -19.08732141 8.18723737 -21 11 C-21.88639389 13.65918166 -22.17989025 15.48064641 -22.31640625 18.23046875 C-22.35830078 19.03291016 -22.40019531 19.83535156 -22.44335938 20.66210938 C-22.48267578 21.49548828 -22.52199219 22.32886719 -22.5625 23.1875 C-22.60568359 24.03248047 -22.64886719 24.87746094 -22.69335938 25.74804688 C-22.79931518 27.83184433 -22.9001502 29.91590103 -23 32 C-25.33294775 32.04241723 -27.66702567 32.04092937 -30 32 C-31.88319268 30.11680732 -31.13054285 26.88069863 -31.1328125 24.375 C-31.13376923 23.71290527 -31.13472595 23.05081055 -31.13571167 22.36865234 C-31.13639326 20.96647039 -31.13454042 19.5642853 -31.13037109 18.16210938 C-31.12502246 16.00904287 -31.1303167 13.85618498 -31.13671875 11.703125 C-31.13605796 10.34374954 -31.13477679 8.9843742 -31.1328125 7.625 C-31.13168457 6.37976563 -31.13055664 5.13453125 -31.12939453 3.8515625 C-31 1 -31 1 -30 0 C-27.66702567 -0.04092937 -25.33294775 -0.04241723 -23 0 C-22.67 0.66 -22.34 1.32 -22 2 C-21.50113281 1.77183594 -21.00226562 1.54367187 -20.48828125 1.30859375 C-13.3834954 -1.53587168 -7.5460927 -0.8737581 0 0 Z " fill="#F0F0F0" transform="translate(587,875)"/>
<path d="M0 0 C2.64 0 5.28 0 8 0 C8.79311367 1.72850345 9.5844259 3.45783354 10.375 5.1875 C10.81585937 6.15042969 11.25671875 7.11335937 11.7109375 8.10546875 C12.87069745 10.70965699 13.94125386 13.35313466 15 16 C17.31 10.72 19.62 5.44 22 0 C22.99 0 23.98 0 25 0 C27.31 4.95 29.62 9.9 32 15 C34.00384991 11.99422513 35.26119742 9.15022736 36.625 5.8125 C37.29402344 4.18248047 37.29402344 4.18248047 37.9765625 2.51953125 C38.31429687 1.68808594 38.65203125 0.85664062 39 0 C41.97 0 44.94 0 48 0 C46.40014695 4.04338736 44.79435704 8.08439149 43.1875 12.125 C42.73568359 13.26710938 42.28386719 14.40921875 41.81835938 15.5859375 C41.37685547 16.69453125 40.93535156 17.803125 40.48046875 18.9453125 C40.07723389 19.96125488 39.67399902 20.97719727 39.25854492 22.02392578 C37.95351818 25.10991531 36.66241764 28.08831933 35 31 C34.01 31.33 33.02 31.66 32 32 C29.36 27.05 26.72 22.1 24 17 C22.11143332 19.83285002 20.49453948 22.6948727 18.875 25.6875 C18.33617187 26.68136719 17.79734375 27.67523437 17.2421875 28.69921875 C16.83226562 29.45847656 16.42234375 30.21773437 16 31 C14.68 31 13.36 31 12 31 C1.54784639 9.05406923 1.54784639 9.05406923 0 0 Z " fill="#EDEDED" transform="translate(616,875)"/>
<path d="M0 0 C4.77817853 2.88460408 7.87608625 5.63607125 9.671875 11.0234375 C9.796875 14.6484375 9.796875 14.6484375 9.671875 18.0234375 C7.92680885 19.76850365 5.48148357 19.25626534 3.10546875 19.33984375 C1.98076172 19.38173828 0.85605469 19.42363281 -0.30273438 19.46679688 C-1.48673828 19.50611328 -2.67074219 19.54542969 -3.890625 19.5859375 C-5.07849609 19.62912109 -6.26636719 19.67230469 -7.49023438 19.71679688 C-10.43607284 19.82327296 -13.3819993 19.92528591 -16.328125 20.0234375 C-12.122136 23.77032207 -9.95544171 24.5341808 -4.48828125 24.296875 C-1.86339766 23.96461125 0.32282234 23.23585177 2.671875 22.0234375 C3.991875 23.6734375 5.311875 25.3234375 6.671875 27.0234375 C0.1466594 31.51858602 -4.47639917 32.86095492 -12.328125 32.0234375 C-17.68944879 30.34288626 -21.21124145 27.7611005 -24.328125 23.0234375 C-26.40606933 18.86754884 -26.07841194 13.30002244 -24.64453125 8.94921875 C-20.00058257 0.06598082 -9.28595999 -3.89511745 0 0 Z M-15.328125 8.0234375 C-15.988125 9.3434375 -16.648125 10.6634375 -17.328125 12.0234375 C-11.388125 12.0234375 -5.448125 12.0234375 0.671875 12.0234375 C0.12281532 7.8365309 0.12281532 7.8365309 -3.203125 6.2734375 C-8.27593079 4.24431518 -10.75162423 5.29701151 -15.328125 8.0234375 Z " fill="#E7E7E7" transform="translate(731.328125,875.9765625)"/>
<path d="M0 0 C3.18523354 2.27516681 5.91866395 4.31522996 7.625 7.875 C8.07596463 11.25723469 8.07100578 14.49172756 7.625 17.875 C6.625 18.875 6.625 18.875 4.30834961 18.98852539 C3.30811768 18.98328857 2.30788574 18.97805176 1.27734375 18.97265625 C0.19775391 18.96943359 -0.88183594 18.96621094 -1.99414062 18.96289062 C-3.13044922 18.95451172 -4.26675781 18.94613281 -5.4375 18.9375 C-6.57767578 18.93298828 -7.71785156 18.92847656 -8.89257812 18.92382812 C-11.72010351 18.91199747 -14.5475264 18.8955141 -17.375 18.875 C-14.3015774 22.49730031 -14.3015774 22.49730031 -10.12890625 24.43359375 C-9.04416016 24.37365234 -9.04416016 24.37365234 -7.9375 24.3125 C-7.16664063 24.26996094 -6.39578125 24.22742188 -5.6015625 24.18359375 C-2.69755537 23.78110855 -0.08328305 22.98609048 2.625 21.875 C4.625 24.875 4.625 24.875 4.625 28.875 C-2.07113372 31.53445736 -8.50135735 33.48226513 -15.578125 31.1484375 C-20.48141705 28.91471556 -24.06135877 26.15910306 -26.125 21 C-26.85360117 14.80689006 -26.40632301 10.41500411 -23.375 4.875 C-16.55065215 -1.59938129 -8.95951371 -2.98650457 0 0 Z M-16.375 7.875 C-17.035 9.525 -17.695 11.175 -18.375 12.875 C-12.105 12.545 -5.835 12.215 0.625 11.875 C-2.03350192 6.91929803 -2.03350192 6.91929803 -6.375 4.875 C-10.79289639 4.875 -12.67815379 5.54437956 -16.375 7.875 Z " fill="#E6E6E6" transform="translate(793.375,876.125)"/>
<path d="M0 0 C4.47870656 2.15937638 7.18198188 4.92952939 10 9 C11.16461426 12.49384279 11.13568319 15.33655389 11 19 C10 20 10 20 7.59155273 20.11352539 C6.54942627 20.10828857 5.5072998 20.10305176 4.43359375 20.09765625 C3.30888672 20.09443359 2.18417969 20.09121094 1.02539062 20.08789062 C-0.15861328 20.07951172 -1.34261719 20.07113281 -2.5625 20.0625 C-3.75037109 20.05798828 -4.93824219 20.05347656 -6.16210938 20.04882812 C-9.10812226 20.03699675 -12.05403681 20.02051287 -15 20 C-12.57510117 23.53965598 -12.57510117 23.53965598 -9.0703125 25.8125 C-4.12987494 26.28868675 -1.39791489 25.55692726 3 23 C3.99 23 4.98 23 6 23 C8 26 8 26 8 29 C1.67691064 32.42118844 -3.79137151 34.13759355 -11 33 C-16.87635887 31.19966974 -20.07225588 28.50415894 -23 23 C-24.55933311 18.32200067 -24.57094713 14.50249244 -22.8125 9.875 C-16.9295635 0.54344555 -10.56620986 -1.14726944 0 0 Z M-14 9 C-14.66 10.32 -15.32 11.64 -16 13 C-9.73 13 -3.46 13 3 13 C1.58261912 8.20000935 1.58261912 8.20000935 -0.75 6.6875 C-5.96358057 5.09446149 -9.69222049 5.64950483 -14 9 Z " fill="#EAEAEB" transform="translate(539,875)"/>
<path d="M0 0 C4.90624714 2.27790046 7.5167579 5.21745967 10 10 C11.61616162 16.76767677 11.61616162 16.76767677 10 20 C-2.375 20.495 -2.375 20.495 -15 21 C-11.63763644 25.11062708 -11.63763644 25.11062708 -8.59765625 25.4609375 C-2.07943639 25.25659309 -2.07943639 25.25659309 4 23 C5.5 24.25 5.5 24.25 7 26 C7 27.32 7 28.64 7 30 C0.27488348 32.67096826 -6.08387281 34.54282715 -13.203125 32.30859375 C-17.97653322 30.19591863 -20.68959458 27.80564327 -23 23 C-24.54377559 16.72197926 -23.98113875 11.79094768 -21 6 C-14.76829653 -0.23170347 -8.53286182 -0.91505221 0 0 Z M-15 10 C-15.33 11.32 -15.66 12.64 -16 14 C-9.73 13.67 -3.46 13.34 3 13 C0.83653172 8.56607195 0.83653172 8.56607195 -3 6 C-8.43630833 5.30810621 -11.21160249 5.98875557 -15 10 Z " fill="#EAEAEA" transform="translate(470,875)"/>
<path d="M0 0 C3 0.125 3 0.125 4 1.125 C4.23527773 3.47487262 4.41386417 5.83056039 4.5625 8.1875 C4.64628906 9.47785156 4.73007812 10.76820313 4.81640625 12.09765625 C4.87699219 13.09667969 4.93757812 14.09570312 5 15.125 C5.99 14.465 6.98 13.805 8 13.125 C12.90562489 11.7871023 16.28999356 12.24099742 21 14.125 C24.07938375 16.73578187 25.72091091 18.28773272 27 22.125 C27.09317856 23.81311426 27.13069271 25.50462994 27.1328125 27.1953125 C27.13474609 28.66291016 27.13474609 28.66291016 27.13671875 30.16015625 C27.13285156 31.17980469 27.12898437 32.19945312 27.125 33.25 C27.13080078 34.79107422 27.13080078 34.79107422 27.13671875 36.36328125 C27.13542969 37.33910156 27.13414062 38.31492187 27.1328125 39.3203125 C27.13168457 40.21766113 27.13055664 41.11500977 27.12939453 42.03955078 C27 44.125 27 44.125 26 45.125 C23 45.25 23 45.25 20 45.125 C18.39308575 43.51808575 18.85328809 41.75962533 18.82421875 39.5390625 C18.80037109 38.60835937 18.77652344 37.67765625 18.75195312 36.71875 C18.7091587 34.74761265 18.67781358 32.77619181 18.65820312 30.8046875 C18.63048828 29.87140625 18.60277344 28.938125 18.57421875 27.9765625 C18.55963623 27.11885254 18.54505371 26.26114258 18.5300293 25.37744141 C18.17484406 22.9825118 18.17484406 22.9825118 16.19067383 21.31396484 C12.87338669 19.51354265 10.5623636 20.20142425 7 21.125 C4.90976314 24.26035529 4.73160364 25.15966749 4.62109375 28.7578125 C4.58693359 29.64597656 4.55277344 30.53414062 4.51757812 31.44921875 C4.49115234 32.37347656 4.46472656 33.29773438 4.4375 34.25 C4.37782118 36.08607616 4.31423412 37.9220309 4.24609375 39.7578125 C4.22216553 40.57137207 4.1982373 41.38493164 4.17358398 42.22314453 C4 44.125 4 44.125 3 45.125 C0 45.25 0 45.25 -3 45.125 C-4.53084425 43.59415575 -4.12715779 42.21296856 -4.12939453 40.08007812 C-4.13254669 39.22248901 -4.13569885 38.3648999 -4.13894653 37.48132324 C-4.1369223 36.54904907 -4.13489807 35.6167749 -4.1328125 34.65625 C-4.13376923 33.70560669 -4.13472595 32.75496338 -4.13571167 31.7755127 C-4.13639357 29.76131118 -4.13453862 27.74710748 -4.13037109 25.73291016 C-4.12502298 22.63829645 -4.13031577 19.5438279 -4.13671875 16.44921875 C-4.13605797 14.49739551 -4.13477681 12.54557236 -4.1328125 10.59375 C-4.13483673 9.66147583 -4.13686096 8.72920166 -4.13894653 7.76867676 C-4.13579437 6.91108765 -4.13264221 6.05349854 -4.12939453 5.16992188 C-4.12859894 4.41126831 -4.12780334 3.65261475 -4.12698364 2.87097168 C-3.90296478 -0.20919341 -3.12564855 0.13023536 0 0 Z " fill="#EBEBEB" transform="translate(673,861.875)"/>
<path d="M0 0 C6.45291721 5.5294228 6.45291721 5.5294228 6.859375 9.98046875 C6.97314556 14.79475994 7.04278813 18.42649834 5.05859375 22.87109375 C0.55610979 27.48902601 -3.94790361 29.89965544 -10.3359375 30.40625 C-16.61447841 30.29820627 -21.44881613 28.26930454 -26.37890625 24.37109375 C-30.12679174 20.09559331 -30.64685624 15.94780283 -30.37890625 10.37109375 C-29.14194272 5.84071481 -27.16952051 3.05389697 -23.62890625 -0.00390625 C-15.69626299 -3.97022788 -7.6982133 -5.27119039 0 0 Z M-20.37890625 6.37109375 C-22.33686295 9.43572162 -22.38047349 11.28176116 -22.31640625 14.93359375 C-21.19697168 19.03818717 -19.9139979 20.12932831 -16.37890625 22.37109375 C-13.51282496 23.80413439 -11.56589842 23.6775353 -8.37890625 23.37109375 C-5.81417695 21.87096907 -3.4870716 20.4792591 -1.37890625 18.37109375 C-0.70030678 13.67906313 -0.71256176 10.37061049 -3.37890625 6.37109375 C-9.16985253 2.5104629 -14.55365845 2.21020246 -20.37890625 6.37109375 Z " fill="#EAEAEA" transform="translate(1026.37890625,877.62890625)"/>
<path d="M0 0 C3.95478251 2.91900614 7.41112181 6.50974362 9.625 10.9375 C10.23156076 16.8009207 9.57635892 20.32422015 6.1640625 25.17578125 C2.40880636 29.47431048 -1.66852082 31.04426821 -7.25 31.875 C-13.0148844 32.22598231 -18.54717254 31.4143799 -23.01171875 27.50390625 C-27.22515842 22.66267615 -27.67522179 18.52278114 -27.5859375 12.37109375 C-27.17395301 7.61801337 -24.80259375 5.19730247 -21.375 2.1875 C-15.27133659 -2.39024756 -7.12815792 -2.24404972 0 0 Z M-17.375 7.9375 C-19.88964223 10.95507067 -20.36687106 12.48227949 -20.4375 16.4375 C-19.05311019 20.99784291 -17.41712164 22.46731455 -13.375 24.9375 C-8.19575909 25.67739156 -4.74802187 24.78504912 -0.375 21.9375 C1.39051385 19.61023175 1.62173184 17.95897649 2.0625 15.0625 C1.59046288 11.69080629 0.63956642 9.65572718 -1.68359375 7.140625 C-6.60785416 3.63791782 -12.91071555 3.99842548 -17.375 7.9375 Z " fill="#F1F1F1" transform="translate(885.375,876.0625)"/>
<path d="M0 0 C2.31 0 4.62 0 7 0 C7.39832031 0.86882813 7.79664063 1.73765625 8.20703125 2.6328125 C8.73683594 3.78523437 9.26664063 4.93765625 9.8125 6.125 C10.33457031 7.26195312 10.85664062 8.39890625 11.39453125 9.5703125 C12.87895223 12.74141134 14.41906271 15.8761059 16 19 C19.00048246 15.41788555 20.77698774 11.46987884 22.6875 7.25 C23.16799805 6.20392578 23.16799805 6.20392578 23.65820312 5.13671875 C24.44306261 3.42642792 25.22211648 1.71347493 26 0 C28.64 0 31.28 0 34 0 C33.38441269 4.59052252 31.49057983 8.32128878 29.375 12.375 C28.64672175 13.79860274 27.92019956 15.22310501 27.1953125 16.6484375 C26.82825195 17.36999023 26.46119141 18.09154297 26.08300781 18.83496094 C24.40377665 22.19190908 22.82250032 25.592051 21.25 29 C14.57618129 43.42381871 14.57618129 43.42381871 13 45 C10.66702567 45.04092937 8.33294775 45.04241723 6 45 C6.56413279 40.62797087 8.27708099 37.16075171 10.2578125 33.28125 C11.71171218 28.81242151 9.64521016 24.89944002 7.71484375 20.83984375 C7.26689453 19.88142578 6.81894531 18.92300781 6.35742188 17.93554688 C5.40858017 15.93214658 4.45805081 13.92954475 3.50585938 11.92773438 C3.05919922 10.97060547 2.61253906 10.01347656 2.15234375 9.02734375 C1.73976318 8.15843506 1.32718262 7.28952637 0.90209961 6.39428711 C0 4 0 4 0 0 Z " fill="#EEEEEE" transform="translate(823,875)"/>
<path d="M0 0 C0.556875 0.37125 1.11375 0.7425 1.6875 1.125 C1.75136223 4.79353046 1.73750723 8.45628801 1.6875 12.125 C1.68363281 13.09308594 1.67976562 14.06117188 1.67578125 15.05859375 C1.43833852 20.96191139 0.5501424 24.593475 -3.70703125 28.8203125 C-7.97861798 32.29162629 -11.9152311 32.5902818 -17.3125 32.125 C-21.9261433 30.56105312 -25.2199252 28.93124591 -28.3125 25.125 C-29.31255304 22.12484088 -29.42825585 20.15076244 -29.41015625 17.01953125 C-29.40693359 16.03662109 -29.40371094 15.05371094 -29.40039062 14.04101562 C-29.39201172 13.01685547 -29.38363281 11.99269531 -29.375 10.9375 C-29.37048828 9.90173828 -29.36597656 8.86597656 -29.36132812 7.79882812 C-29.3495401 5.24082734 -29.33308515 2.68294267 -29.3125 0.125 C-27.0025 0.125 -24.6925 0.125 -22.3125 0.125 C-22.3031543 0.70991211 -22.29380859 1.29482422 -22.28417969 1.89746094 C-22.23036721 4.5574858 -22.14674551 7.21577222 -22.0625 9.875 C-22.04832031 10.79539062 -22.03414062 11.71578125 -22.01953125 12.6640625 C-21.87321004 18.05175394 -21.87321004 18.05175394 -19.45703125 22.7421875 C-16.56038251 24.60997193 -14.69527902 24.55684413 -11.3125 24.125 C-8.19109009 22.49190176 -8.19109009 22.49190176 -7.62890625 20.01953125 C-7.21989035 16.27779317 -7.2063445 12.57023088 -7.25 8.8125 C-7.25451172 8.07193359 -7.25902344 7.33136719 -7.26367188 6.56835938 C-7.27537825 4.75387101 -7.29331102 2.93942466 -7.3125 1.125 C-2.88173077 -1.09038462 -2.88173077 -1.09038462 0 0 Z " fill="#EEEEEE" transform="translate(930.3125,874.875)"/>
<path d="M0 0 C2.64 0 5.28 0 8 0 C8.49371094 1.05960938 8.98742187 2.11921875 9.49609375 3.2109375 C10.14321471 4.59896507 10.79035092 5.98698554 11.4375 7.375 C11.76298828 8.07367187 12.08847656 8.77234375 12.42382812 9.4921875 C14.17781436 13.26246981 14.17781436 13.26246981 16 17 C18.97 11.39 21.94 5.78 25 0 C27.31 0 29.62 0 32 0 C31.36587572 4.21264183 29.92291543 7.57538684 28.05859375 11.39453125 C27.77146011 11.98674973 27.48432648 12.5789682 27.18849182 13.18913269 C26.27686001 15.06625694 25.35732876 16.93938103 24.4375 18.8125 C23.81522806 20.0902382 23.19347768 21.36823054 22.57226562 22.64648438 C21.05420157 25.76728672 19.52903189 28.88455393 18 32 C16.68 32 15.36 32 14 32 C11.99866854 27.9285223 10.00507003 23.85338541 8.01855469 19.7746582 C7.34163442 18.38755577 6.66260964 17.00147832 5.98144531 15.61645508 C5.00291193 13.62586712 4.0319975 11.63172001 3.0625 9.63671875 C2.75626709 9.01786301 2.45003418 8.39900726 2.13452148 7.76139832 C0.78276652 4.96242724 0 3.1537215 0 0 Z " fill="#F0F0F0" transform="translate(482,875)"/>
<path d="M0 0 C-1 2.875 -1 2.875 -3 6 C-5.03517434 6.8013499 -6.98037247 7.18389862 -9.12890625 7.578125 C-11.53327988 8.12023847 -12.61952444 8.96988889 -14 11 C-14.88639389 13.65918166 -15.17989025 15.48064641 -15.31640625 18.23046875 C-15.35830078 19.03291016 -15.40019531 19.83535156 -15.44335938 20.66210938 C-15.48267578 21.49548828 -15.52199219 22.32886719 -15.5625 23.1875 C-15.60568359 24.03248047 -15.64886719 24.87746094 -15.69335938 25.74804688 C-15.79931518 27.83184433 -15.9001502 29.91590103 -16 32 C-18.33294775 32.04241723 -20.66702567 32.04092937 -23 32 C-24.88319268 30.11680732 -24.13054285 26.88069863 -24.1328125 24.375 C-24.13376923 23.71290527 -24.13472595 23.05081055 -24.13571167 22.36865234 C-24.13639326 20.96647039 -24.13454042 19.5642853 -24.13037109 18.16210938 C-24.12502246 16.00904287 -24.1303167 13.85618498 -24.13671875 11.703125 C-24.13605796 10.34374954 -24.13477679 8.9843742 -24.1328125 7.625 C-24.13168457 6.37976563 -24.13055664 5.13453125 -24.12939453 3.8515625 C-24 1 -24 1 -23 0 C-20.66702567 -0.04092937 -18.33294775 -0.04241723 -16 0 C-15.67 0.66 -15.34 1.32 -15 2 C-14.41992188 1.77183594 -13.83984375 1.54367187 -13.2421875 1.30859375 C-8.42544204 -0.46390499 -5.11525483 -1.44276418 0 0 Z " fill="#DCDCDC" transform="translate(580,875)"/>
<path d="M0 0 C0 1.65 0 3.3 0 5 C-0.721875 5.103125 -1.44375 5.20625 -2.1875 5.3125 C-5.9573084 6.23400872 -9.03959796 7.42582763 -11.12084961 10.8371582 C-12.05213047 13.12824877 -12.294031 14.83104069 -12.37890625 17.29296875 C-12.41306641 18.08767578 -12.44722656 18.88238281 -12.48242188 19.70117188 C-12.50884766 20.52166016 -12.53527344 21.34214844 -12.5625 22.1875 C-12.87891881 30.87891881 -12.87891881 30.87891881 -14 32 C-17 32.125 -17 32.125 -20 32 C-21.88319268 30.11680732 -21.13054285 26.88069863 -21.1328125 24.375 C-21.13376923 23.71290527 -21.13472595 23.05081055 -21.13571167 22.36865234 C-21.13639326 20.96647039 -21.13454042 19.5642853 -21.13037109 18.16210938 C-21.12502246 16.00904287 -21.1303167 13.85618498 -21.13671875 11.703125 C-21.13605796 10.34374954 -21.13477679 8.9843742 -21.1328125 7.625 C-21.13168457 6.37976563 -21.13055664 5.13453125 -21.12939453 3.8515625 C-21 1 -21 1 -20 0 C-17.66702567 -0.04092937 -15.33294775 -0.04241723 -13 0 C-13 0.66 -13 1.32 -13 2 C-12.48050781 1.77183594 -11.96101562 1.54367187 -11.42578125 1.30859375 C-7.25528555 -0.41048304 -4.46726213 -1.53562136 0 0 Z " fill="#E9E9E9" transform="translate(766,875)"/>
<path d="M0 0 C0.33 0 0.66 0 1 0 C1.125 5.75 1.125 5.75 0 8 C-21.45 8 -42.9 8 -65 8 C-64.67 7.34 -64.34 6.68 -64 6 C-53.26917721 2.79313055 -41.21817534 3.72895781 -30.15844727 3.79418945 C-26.91349554 3.81263646 -23.66882724 3.81469731 -20.42382812 3.81445312 C-18.3541642 3.81936273 -16.28450219 3.8251886 -14.21484375 3.83203125 C-12.76488258 3.83370049 -12.76488258 3.83370049 -11.28562927 3.83540344 C-10.38691605 3.84178329 -9.48820282 3.84816315 -8.56225586 3.85473633 C-7.77539902 3.85854813 -6.98854218 3.86235992 -6.17784119 3.86628723 C-4.0034478 3.99978832 -2.09019337 4.40163019 0 5 C0 3.35 0 1.7 0 0 Z " fill="#F0F2F3" transform="translate(592,824)"/>
<path d="M0 0 C0.66 0 1.32 0 2 0 C2 15.51 2 31.02 2 47 C-4.6 47 -11.2 47 -18 47 C-18 46.67 -18 46.34 -18 46 C-10.08 45.505 -10.08 45.505 -2 45 C-1.97494385 43.67234619 -1.9498877 42.34469238 -1.92407227 40.97680664 C-1.83018481 36.06980055 -1.72991927 31.16294224 -1.62768555 26.25610352 C-1.58426577 24.12885993 -1.54259607 22.0015799 -1.50268555 19.87426758 C-1.44515293 16.82361849 -1.38141033 13.77315411 -1.31640625 10.72265625 C-1.29133751 9.28672874 -1.29133751 9.28672874 -1.26576233 7.8217926 C-1.24581711 6.94095505 -1.22587189 6.06011749 -1.20532227 5.15258789 C-1.18977798 4.37315323 -1.1742337 3.59371857 -1.15821838 2.79066467 C-1 1 -1 1 0 0 Z " fill="#F0F3F3" transform="translate(516,785)"/>
<path d="M0 0 C0.99 0 1.98 0 3 0 C6.54757665 10.51063934 8.84300883 21.13473064 11 32 C10.01 32.66 9.02 33.32 8 34 C5.60229895 27.3039431 3.8539673 20.56393134 2.3125 13.625 C2.08755859 12.64144531 1.86261719 11.65789063 1.63085938 10.64453125 C0 3.39736892 0 3.39736892 0 0 Z " fill="#E7E9E9" transform="translate(559,689)"/>
<path d="M0 0 C1.16781006 0.00523682 2.33562012 0.01047363 3.53881836 0.01586914 C4.79887695 0.0190918 6.05893555 0.02231445 7.35717773 0.02563477 C8.6976732 0.03399136 10.03816799 0.04245632 11.37866211 0.05102539 C12.72306153 0.05603879 14.06746271 0.06060197 15.41186523 0.06469727 C18.71334151 0.07653051 22.01473014 0.09301568 25.31616211 0.11352539 C24.98616211 0.77352539 24.65616211 1.43352539 24.31616211 2.11352539 C16.06616211 2.11352539 7.81616211 2.11352539 -0.68383789 2.11352539 C-0.68383789 8.05352539 -0.68383789 13.99352539 -0.68383789 20.11352539 C-1.34383789 20.11352539 -2.00383789 20.11352539 -2.68383789 20.11352539 C-3.51020082 15.7915161 -3.81889144 11.69945373 -3.80883789 7.30102539 C-3.81141602 6.16020508 -3.81399414 5.01938477 -3.81665039 3.84399414 C-3.63715843 0.15385051 -3.63715843 0.15385051 0 0 Z " fill="#F7F8F8" transform="translate(526.683837890625,655.886474609375)"/>
<path d="M0 0 C0.99 0.33 1.98 0.66 3 1 C2.67 3.31 2.34 5.62 2 8 C2.99 7.67 3.98 7.34 5 7 C5.93972656 7.29648437 6.87945312 7.59296875 7.84765625 7.8984375 C13.54440074 9.68194867 19.51906585 9.47001645 25.4375 9.625 C26.64599609 9.66367187 27.85449219 9.70234375 29.09960938 9.7421875 C32.06625817 9.83599458 35.03290836 9.92169246 38 10 C38 10.33 38 10.66 38 11 C24.8 11 11.6 11 -2 11 C-3.31826804 7.04519588 -2.29536133 4.88608399 -1 1 C-0.67 0.67 -0.34 0.34 0 0 Z " fill="#E9ECED" transform="translate(450,821)"/>
<path d="M0 0 C0.99 0 1.98 0 3 0 C3.02892385 4.12498538 3.04677267 8.24994485 3.0625 12.375 C3.07087891 13.550625 3.07925781 14.72625 3.08789062 15.9375 C3.09111328 17.05898438 3.09433594 18.18046875 3.09765625 19.3359375 C3.10289307 20.37282715 3.10812988 21.4097168 3.11352539 22.47802734 C3 25 3 25 2 27 C-0.31 27 -2.62 27 -5 27 C-5 26.34 -5 25.68 -5 25 C-3.35 25 -1.7 25 0 25 C0 16.75 0 8.5 0 0 Z " fill="#B3B4B3" transform="translate(523,730)"/>
<path d="M0 0 C3.125 0.375 3.125 0.375 6 1 C6 1.33 6 1.66 6 2 C4.35 2.33 2.7 2.66 1 3 C1 11.25 1 19.5 1 28 C0.01 28 -0.98 28 -2 28 C-2.05783842 23.70838953 -2.0935412 19.41687855 -2.125 15.125 C-2.14175781 13.90167969 -2.15851562 12.67835938 -2.17578125 11.41796875 C-2.18222656 10.25136719 -2.18867187 9.08476563 -2.1953125 7.8828125 C-2.20578613 6.80402832 -2.21625977 5.72524414 -2.22705078 4.61376953 C-2 2 -2 2 0 0 Z " fill="#EEF0F0" transform="translate(518,727)"/>
<path d="M0 0 C0.99 0.33 1.98 0.66 3 1 C3.88082622 3.71318044 4.57876229 6.28883517 5.1875 9.0625 C5.36474609 9.82111328 5.54199219 10.57972656 5.72460938 11.36132812 C6.16136967 13.23821697 6.58219156 15.1188016 7 17 C5.68 17.33 4.36 17.66 3 18 C2.49095343 16.12743583 1.99317545 14.25180659 1.5 12.375 C1.08234375 10.80878906 1.08234375 10.80878906 0.65625 9.2109375 C0.00881404 6.04312582 -0.1161292 3.22258533 0 0 Z " fill="#EAEBEC" transform="translate(585,794)"/>
<path d="M0 0 C1.1171875 1.609375 1.1171875 1.609375 2 4 C1.3203125 7.015625 1.3203125 7.015625 0.125 10.25 C-0.26429688 11.32765625 -0.65359375 12.4053125 -1.0546875 13.515625 C-1.36664063 14.33546875 -1.67859375 15.1553125 -2 16 C-2.66 16 -3.32 16 -4 16 C-3.40546697 4.29384966 -3.40546697 4.29384966 0 0 Z " fill="#EFF2F0" transform="translate(477,714)"/>
<path d="M0 0 C0.99 0 1.98 0 3 0 C3.58384377 1.93117554 4.14147054 3.87029395 4.6875 5.8125 C5.00074219 6.89144531 5.31398438 7.97039063 5.63671875 9.08203125 C6 12 6 12 4.58203125 13.88671875 C4.05996094 14.25410156 3.53789063 14.62148438 3 15 C2.49363393 13.25183142 1.99515381 11.50137737 1.5 9.75 C1.2215625 8.77546875 0.943125 7.8009375 0.65625 6.796875 C0 4 0 4 0 0 Z " fill="#E6E9E9" transform="translate(568,725)"/>
<path d="M0 0 C0.33 0 0.66 0 1 0 C1.33 6.6 1.66 13.2 2 20 C1.01 19.34 0.02 18.68 -1 18 C-1.24817926 15.06616664 -1.32643881 12.36367315 -1.25 9.4375 C-1.24484375 8.64408203 -1.2396875 7.85066406 -1.234375 7.03320312 C-1.15404491 1.15404491 -1.15404491 1.15404491 0 0 Z " fill="#F7F8F8" transform="translate(517,658)"/>
<path d="M0 0 C2.52480693 2.52480693 2.55738633 4.13823034 3.125 7.625 C3.29257812 8.62789062 3.46015625 9.63078125 3.6328125 10.6640625 C3.75398437 11.43492187 3.87515625 12.20578125 4 13 C1 12 1 12 -0.1875 9.8125 C-1.07965954 6.72425545 -1.21811227 4.19897999 -1 1 C-0.67 0.67 -0.34 0.34 0 0 Z " fill="#D6D7D8" transform="translate(582,774)"/>
<path d="M0 0 C0.99 0 1.98 0 3 0 C4.50934217 3.01868434 4.17510672 5.67297229 4 9 C3.01 10.485 3.01 10.485 2 12 C0.86235649 7.73383684 0 4.43513689 0 0 Z " fill="#EEF0F1" transform="translate(573,746)"/>
<path d="M0 0 C0.99 0 1.98 0 3 0 C3.25532751 3.06393013 3.21861333 4.63233212 1.625 7.3125 C0.820625 8.1478125 0.820625 8.1478125 0 9 C-0.66 9 -1.32 9 -2 9 C-1.34 6.03 -0.68 3.06 0 0 Z " fill="#F7F9F8" transform="translate(481,692)"/>
<path d="M0 0 C2.12046792 3.53411321 2.53199289 6.94393835 3 11 C2.01 11 1.02 11 0 11 C-0.19491452 9.54263913 -0.38069358 8.08405407 -0.5625 6.625 C-0.66691406 5.81289063 -0.77132812 5.00078125 -0.87890625 4.1640625 C-1 2 -1 2 0 0 Z " fill="#D5D6D6" transform="translate(577,753)"/>
<path d="M0 0 C-0.33 0.99 -0.66 1.98 -1 3 C-1.22451458 5.22574335 -1.40782878 7.45581519 -1.5625 9.6875 C-1.64628906 10.86699219 -1.73007812 12.04648437 -1.81640625 13.26171875 C-1.87699219 14.16535156 -1.93757812 15.06898438 -2 16 C-2.33 16 -2.66 16 -3 16 C-3.04898438 15.07316406 -3.09796875 14.14632812 -3.1484375 13.19140625 C-3.22320313 11.99386719 -3.29796875 10.79632812 -3.375 9.5625 C-3.44460938 8.36753906 -3.51421875 7.17257812 -3.5859375 5.94140625 C-3.72257813 4.97074219 -3.85921875 4.00007812 -4 3 C-4.66 2.67 -5.32 2.34 -6 2 C-2.25 0 -2.25 0 0 0 Z " fill="#E7E8E8" transform="translate(518,656)"/>
<path d="M0 0 C2.625 -0.1875 2.625 -0.1875 5 0 C5.33 0.66 5.66 1.32 6 2 C4.35 2 2.7 2 1 2 C1 2.99 1 3.98 1 5 C0.34 5 -0.32 5 -1 5 C-1 6.65 -1 8.3 -1 10 C-1.33 10 -1.66 10 -2 10 C-2.25 3.375 -2.25 3.375 0 0 Z " fill="#F4F6F5" transform="translate(517,690)"/>
<path d="M0 0 C2.76223278 2.76223278 2.57856291 5.20706617 3 9 C2.01 9 1.02 9 0 9 C-0.87890625 2.84765625 -0.87890625 2.84765625 -1 1 C-0.67 0.67 -0.34 0.34 0 0 Z " fill="#CED1D1" transform="translate(573,737)"/>
<path d="M0 0 C2.64 0.66 5.28 1.32 8 2 C8 2.33 8 2.66 8 3 C6.35 3 4.7 3 3 3 C2.67 3.99 2.34 4.98 2 6 C1.01 5.34 0.02 4.68 -1 4 C-0.67 2.68 -0.34 1.36 0 0 Z " fill="#E7E9E8" transform="translate(490,656)"/>
<path d="M0 0 C2.78637633 4.1795645 1.79562512 6.14668677 1 11 C-1.78637633 6.8204355 -0.79562512 4.85331323 0 0 Z " fill="#D9DCDB" transform="translate(461,772)"/>
<path d="M0 0 C0.33 0 0.66 0 1 0 C0.25 6.75 0.25 6.75 -2 9 C-2.25 3.375 -2.25 3.375 0 0 Z " fill="#FAFBFB" transform="translate(464,766)"/>
<path d="M0 0 C0.33 0 0.66 0 1 0 C1.38063221 2.3260857 1.71269945 4.66055264 2 7 C1 8 1 8 -1.5625 8.0625 C-2.366875 8.041875 -3.17125 8.02125 -4 8 C-4 7.34 -4 6.68 -4 6 C-2.68 6 -1.36 6 0 6 C0 4.02 0 2.04 0 0 Z " fill="#EBECEC" transform="translate(523,670)"/>
</svg>
